<svg width="38" height="38" viewBox="0 0 38 38" fill="none" xmlns="http://www.w3.org/2000/svg">
<g filter="url(#filter0_b_149_271)">
<path d="M37.2893 19.0494C37.2893 29.0275 29.2009 37.1159 19.2228 37.1159C9.24462 37.1159 1.15625 29.0275 1.15625 19.0494C1.15625 9.07309 9.24462 0.98291 19.2228 0.98291C29.2009 0.98291 37.2893 9.07309 37.2893 19.0494Z" fill="url(#paint0_linear_149_271)"/>
<path d="M19.2228 37.2806C29.2918 37.2806 37.4539 29.1185 37.4539 19.0494C37.4539 8.98215 29.2918 0.818222 19.2228 0.818222C9.15366 0.818222 0.991562 8.98215 0.991562 19.0494C0.991562 29.1185 9.15367 37.2806 19.2228 37.2806Z" stroke="url(#paint1_linear_149_271)" stroke-width="0.329376" stroke-linecap="round" stroke-linejoin="round"/>
</g>
<g filter="url(#filter1_b_149_271)">
<path d="M26.2077 18.5757C26.2077 19.0018 26.0736 19.4296 25.8054 19.7722C25.7551 19.8394 25.5203 20.1164 25.3359 20.2967L25.2353 20.395C23.8269 21.8882 20.3228 24.1338 18.5456 24.8533C18.5456 24.8697 17.4893 25.2975 16.9863 25.3123H16.9192C16.148 25.3123 15.427 24.8878 15.0582 24.1994C14.857 23.8207 14.6726 22.7225 14.6558 22.7078C14.5049 21.7227 14.4043 20.2147 14.4043 18.5593C14.4043 16.8235 14.5049 15.2483 14.6893 14.2813C14.6893 14.2649 14.8738 13.3798 14.9911 13.0847C15.1755 12.6602 15.5109 12.298 15.93 12.0685C16.2654 11.9062 16.6174 11.8226 16.9863 11.8226C17.3719 11.8407 18.0929 12.0849 18.3779 12.1996C20.2557 12.9208 23.8437 15.2811 25.2185 16.7235C25.4533 16.953 25.7048 17.2332 25.7718 17.2972C26.0569 17.6578 26.2077 18.1003 26.2077 18.5757Z" fill="url(#paint2_linear_149_271)"/>
<path d="M25.7535 19.7316L25.7526 19.7327C25.7044 19.7971 25.4719 20.0716 25.2899 20.2496L25.1893 20.3479L25.1892 20.3479L25.1874 20.3498C24.4886 21.0907 23.2656 22.0221 21.9926 22.8593C20.7198 23.6963 19.4036 24.4349 18.5208 24.7923L18.4797 24.8089V24.8137C18.4774 24.8148 18.475 24.8158 18.4724 24.817C18.4436 24.8298 18.4012 24.8476 18.3483 24.8687C18.2424 24.9109 18.0957 24.966 17.9334 25.021C17.6062 25.132 17.2257 25.2391 16.9853 25.2464H16.9192C16.1721 25.2464 15.4736 24.8351 15.1163 24.1683C15.0206 23.9882 14.9259 23.6282 14.8521 23.3026C14.8156 23.1415 14.7848 22.9916 14.762 22.8806L14.762 22.8806L14.7619 22.8803C14.7506 22.8251 14.7411 22.7791 14.734 22.7465C14.7304 22.7303 14.7273 22.7165 14.7246 22.7063C14.7233 22.7013 14.7219 22.696 14.7203 22.6913C14.7201 22.6907 14.7199 22.6901 14.7196 22.6893C14.5701 21.7085 14.4702 20.208 14.4702 18.5593C14.4702 16.8247 14.5708 15.2545 14.754 14.2936L14.7552 14.2938V14.286L14.7562 14.2803L14.7621 14.2502C14.7673 14.2242 14.7749 14.1874 14.7844 14.1426C14.8035 14.0531 14.8301 13.9321 14.8604 13.8025C14.9213 13.5418 14.9955 13.2525 15.0519 13.11C15.2302 12.7003 15.5544 12.3497 15.9602 12.1271C16.286 11.9697 16.6273 11.8887 16.9847 11.8885C17.169 11.8974 17.4383 11.9607 17.7012 12.0381C17.9634 12.1152 18.2129 12.2042 18.3533 12.2607L18.3533 12.2607L18.3543 12.2611C19.2865 12.6191 20.6483 13.3864 21.9505 14.2461C23.2529 15.1058 24.4887 16.0532 25.1709 16.7689L25.1708 16.769L25.1725 16.7706C25.2888 16.8843 25.4096 17.011 25.5101 17.1176C25.5341 17.143 25.557 17.1675 25.5786 17.1904C25.6433 17.2593 25.6952 17.3146 25.7229 17.3415C25.9966 17.6894 26.1419 18.1161 26.1419 18.5757C26.1419 18.9883 26.0119 19.4015 25.7535 19.7316Z" stroke="url(#paint3_linear_149_271)" stroke-width="0.13175"/>
</g>
<defs>
<filter id="filter0_b_149_271" x="-0.757149" y="-0.930733" width="39.9596" height="39.9603" filterUnits="userSpaceOnUse" color-interpolation-filters="sRGB">
<feFlood flood-opacity="0" result="BackgroundImageFix"/>
<feGaussianBlur in="BackgroundImageFix" stdDeviation="0.792149"/>
<feComposite in2="SourceAlpha" operator="in" result="effect1_backgroundBlur_149_271"/>
<feBlend mode="normal" in="SourceGraphic" in2="effect1_backgroundBlur_149_271" result="shape"/>
</filter>
<filter id="filter1_b_149_271" x="9.46366" y="6.88199" width="21.685" height="23.3709" filterUnits="userSpaceOnUse" color-interpolation-filters="sRGB">
<feFlood flood-opacity="0" result="BackgroundImageFix"/>
<feGaussianBlur in="BackgroundImageFix" stdDeviation="2.47032"/>
<feComposite in2="SourceAlpha" operator="in" result="effect1_backgroundBlur_149_271"/>
<feBlend mode="normal" in="SourceGraphic" in2="effect1_backgroundBlur_149_271" result="shape"/>
</filter>
<linearGradient id="paint0_linear_149_271" x1="21.8828" y1="21.469" x2="-9.86685" y2="36.9064" gradientUnits="userSpaceOnUse">
<stop stop-color="#FF8F71"/>
<stop offset="1" stop-color="#EF2D1A"/>
</linearGradient>
<linearGradient id="paint1_linear_149_271" x1="6.90803" y1="5.19245" x2="29.957" y2="33.7392" gradientUnits="userSpaceOnUse">
<stop stop-color="white" stop-opacity="0.25"/>
<stop offset="1" stop-color="white" stop-opacity="0"/>
</linearGradient>
<linearGradient id="paint2_linear_149_271" x1="25.3709" y1="14.2586" x2="12.2197" y2="14.6338" gradientUnits="userSpaceOnUse">
<stop stop-color="white"/>
<stop offset="1" stop-color="white" stop-opacity="0.2"/>
</linearGradient>
<linearGradient id="paint3_linear_149_271" x1="16.2832" y1="13.3942" x2="25.0575" y2="22.9029" gradientUnits="userSpaceOnUse">
<stop stop-color="white" stop-opacity="0.25"/>
<stop offset="1" stop-color="white" stop-opacity="0"/>
</linearGradient>
</defs>
</svg>
