<svg width="13" height="15" viewBox="0 0 13 15" fill="none" xmlns="http://www.w3.org/2000/svg">
<g filter="url(#filter0_b_149_274)">
<path d="M12.2077 7.57566C12.2077 8.00182 12.0736 8.42962 11.8054 8.77219C11.7551 8.83939 11.5203 9.11639 11.3359 9.29669L11.2353 9.39504C9.82694 10.8882 6.32279 13.1338 4.54556 13.8533C4.54556 13.8697 3.48929 14.2975 2.9863 14.3123H2.91924C2.14799 14.3123 1.42704 13.8878 1.05818 13.1994C0.856986 12.8207 0.672557 11.7225 0.655791 11.7078C0.504894 10.7227 0.404297 9.21474 0.404297 7.55926C0.404297 5.82348 0.504894 4.24832 0.689323 3.28126C0.689323 3.26487 0.873752 2.37976 0.991116 2.08473C1.17555 1.6602 1.51087 1.29797 1.93003 1.06849C2.26535 0.906225 2.61744 0.822632 2.9863 0.822632C3.37193 0.840662 4.09287 1.08489 4.3779 1.19962C6.25572 1.92082 9.8437 4.2811 11.2185 5.72349C11.4533 5.95296 11.7048 6.23325 11.7718 6.29717C12.0569 6.65777 12.2077 7.10032 12.2077 7.57566Z" fill="url(#paint0_linear_149_274)"/>
<path d="M11.7535 8.73157L11.7526 8.73271C11.7044 8.79712 11.4719 9.07158 11.2899 9.24959L11.1893 9.34793L11.1892 9.34789L11.1874 9.34984C10.4886 10.0907 9.26563 11.0221 7.99256 11.8593C6.7198 12.6963 5.40361 13.4349 4.52084 13.7923L4.47969 13.8089V13.8137C4.47739 13.8148 4.47496 13.8158 4.4724 13.817C4.44361 13.8298 4.40124 13.8476 4.34825 13.8687C4.24239 13.9109 4.09573 13.966 3.9334 14.021C3.60622 14.132 3.22572 14.2391 2.98533 14.2464H2.91924C2.17203 14.2464 1.47352 13.835 1.11625 13.1682C1.02058 12.9881 0.92585 12.6282 0.852072 12.3026C0.815568 12.1415 0.784782 11.9916 0.761986 11.8806L0.761972 11.8806L0.761906 11.8802C0.750578 11.8251 0.741134 11.7791 0.733996 11.7465C0.730441 11.7303 0.727281 11.7165 0.724627 11.7063C0.723337 11.7013 0.721878 11.696 0.720298 11.6913C0.7201 11.6907 0.719871 11.6901 0.71961 11.6893C0.570105 10.7085 0.470172 9.20797 0.470172 7.55926C0.470172 5.82473 0.570778 4.2545 0.754032 3.2936L0.755199 3.29382V3.28598L0.756199 3.28035L0.762072 3.25016C0.767277 3.22415 0.774883 3.18735 0.784407 3.14258C0.803453 3.05306 0.830079 2.93209 0.860357 2.80247C0.921252 2.54176 0.995469 2.25246 1.05195 2.11002C1.2302 1.70034 1.55436 1.34967 1.96021 1.12707C2.28603 0.969656 2.62734 0.888741 2.98475 0.888508C3.16898 0.8974 3.4383 0.96074 3.70124 1.03806C3.9634 1.11515 4.21287 1.2042 4.3533 1.26073L4.3533 1.26074L4.35428 1.26112C5.28651 1.61915 6.64827 2.38642 7.95055 3.24608C9.25294 4.10582 10.4887 5.05322 11.1709 5.76894L11.1708 5.76897L11.1725 5.7706C11.2888 5.88434 11.4096 6.01096 11.5101 6.11759C11.5341 6.14302 11.557 6.16748 11.5786 6.19042C11.6433 6.25934 11.6952 6.31461 11.7229 6.34151C11.9966 6.68942 12.1419 7.11614 12.1419 7.57566C12.1419 7.98834 12.0119 8.40154 11.7535 8.73157Z" stroke="url(#paint1_linear_149_274)" stroke-width="0.13175"/>
</g>
<defs>
<filter id="filter0_b_149_274" x="-4.53634" y="-4.11801" width="21.685" height="23.3709" filterUnits="userSpaceOnUse" color-interpolation-filters="sRGB">
<feFlood flood-opacity="0" result="BackgroundImageFix"/>
<feGaussianBlur in="BackgroundImageFix" stdDeviation="2.47032"/>
<feComposite in2="SourceAlpha" operator="in" result="effect1_backgroundBlur_149_274"/>
<feBlend mode="normal" in="SourceGraphic" in2="effect1_backgroundBlur_149_274" result="shape"/>
</filter>
<linearGradient id="paint0_linear_149_274" x1="11.3709" y1="3.25859" x2="-1.78031" y2="3.63378" gradientUnits="userSpaceOnUse">
<stop stop-color="white"/>
<stop offset="1" stop-color="white" stop-opacity="0.2"/>
</linearGradient>
<linearGradient id="paint1_linear_149_274" x1="2.28321" y1="2.39419" x2="11.0575" y2="11.9029" gradientUnits="userSpaceOnUse">
<stop stop-color="white" stop-opacity="0.25"/>
<stop offset="1" stop-color="white" stop-opacity="0"/>
</linearGradient>
</defs>
</svg>
