<svg width="37" height="38" viewBox="0 0 37 38" fill="none" xmlns="http://www.w3.org/2000/svg">
<g filter="url(#filter0_b_149_26)">
<path d="M36.5305 19.0494C36.5305 29.0275 28.4421 37.1159 18.464 37.1159C8.48583 37.1159 0.397461 29.0275 0.397461 19.0494C0.397461 9.07309 8.48583 0.98291 18.464 0.98291C28.4421 0.98291 36.5305 9.07309 36.5305 19.0494Z" fill="#DADADA" fill-opacity="0.2"/>
<path d="M18.464 37.2806C28.533 37.2806 36.6952 29.1185 36.6952 19.0494C36.6952 8.98215 28.5331 0.818222 18.464 0.818222C8.39487 0.818222 0.232773 8.98215 0.232773 19.0494C0.232773 29.1185 8.39488 37.2806 18.464 37.2806Z" stroke="url(#paint0_linear_149_26)" stroke-width="0.329376" stroke-linecap="round" stroke-linejoin="round"/>
</g>
<g filter="url(#filter1_b_149_26)">
<path d="M25.4499 18.5757C25.4499 19.0018 25.3158 19.4296 25.0475 19.7722C24.9972 19.8394 24.7625 20.1164 24.5781 20.2967L24.4775 20.395C23.0691 21.8882 19.565 24.1338 17.7878 24.8533C17.7878 24.8697 16.7315 25.2975 16.2285 25.3123H16.1614C15.3902 25.3123 14.6692 24.8878 14.3004 24.1994C14.0992 23.8207 13.9147 22.7225 13.898 22.7078C13.7471 21.7227 13.6465 20.2147 13.6465 18.5593C13.6465 16.8235 13.7471 15.2483 13.9315 14.2813C13.9315 14.2649 14.1159 13.3798 14.2333 13.0847C14.4177 12.6602 14.7531 12.298 15.1722 12.0685C15.5075 11.9062 15.8596 11.8226 16.2285 11.8226C16.6141 11.8407 17.3351 12.0849 17.6201 12.1996C19.4979 12.9208 23.0859 15.2811 24.4607 16.7235C24.6955 16.953 24.9469 17.2332 25.014 17.2972C25.299 17.6578 25.4499 18.1003 25.4499 18.5757Z" fill="#DADADA" fill-opacity="0.4"/>
<path d="M24.9957 19.7316L24.9948 19.7327C24.9466 19.7971 24.7141 20.0716 24.532 20.2496L24.4314 20.3479L24.4314 20.3479L24.4296 20.3498C23.7308 21.0907 22.5078 22.0221 21.2347 22.8593C19.962 23.6963 18.6458 24.4349 17.763 24.7923L17.7219 24.8089V24.8137C17.7196 24.8148 17.7172 24.8158 17.7146 24.817C17.6858 24.8298 17.6434 24.8476 17.5904 24.8687C17.4846 24.9109 17.3379 24.966 17.1756 25.021C16.8484 25.132 16.4679 25.2391 16.2275 25.2464H16.1614C15.4143 25.2464 14.7158 24.8351 14.3585 24.1683C14.2628 23.9882 14.1681 23.6282 14.0943 23.3026C14.0578 23.1415 14.027 22.9916 14.0042 22.8806L14.0042 22.8806L14.0041 22.8803C13.9928 22.8251 13.9833 22.7791 13.9762 22.7465C13.9726 22.7303 13.9695 22.7165 13.9668 22.7063C13.9655 22.7013 13.9641 22.696 13.9625 22.6913C13.9623 22.6907 13.9621 22.6901 13.9618 22.6893C13.8123 21.7085 13.7124 20.208 13.7124 18.5593C13.7124 16.8247 13.813 15.2545 13.9962 14.2936L13.9974 14.2938V14.286L13.9984 14.2803L14.0043 14.2502C14.0095 14.2242 14.0171 14.1874 14.0266 14.1426C14.0456 14.0531 14.0723 13.9321 14.1025 13.8025C14.1634 13.5418 14.2377 13.2525 14.2941 13.11C14.4724 12.7003 14.7966 12.3497 15.2024 12.1271C15.5282 11.9697 15.8695 11.8887 16.2269 11.8885C16.4112 11.8974 16.6805 11.9607 16.9434 12.0381C17.2056 12.1152 17.4551 12.2042 17.5955 12.2607L17.5955 12.2607L17.5965 12.2611C18.5287 12.6191 19.8905 13.3864 21.1927 14.2461C22.4951 15.1058 23.7308 16.0532 24.413 16.7689L24.413 16.769L24.4147 16.7706C24.531 16.8843 24.6518 17.011 24.7523 17.1176C24.7763 17.143 24.7992 17.1675 24.8208 17.1904C24.8855 17.2593 24.9374 17.3146 24.9651 17.3415C25.2388 17.6894 25.3841 18.1161 25.3841 18.5757C25.3841 18.9883 25.2541 19.4015 24.9957 19.7316Z" stroke="url(#paint1_linear_149_26)" stroke-width="0.13175"/>
</g>
<defs>
<filter id="filter0_b_149_26" x="-1.51594" y="-0.930733" width="39.9596" height="39.9603" filterUnits="userSpaceOnUse" color-interpolation-filters="sRGB">
<feFlood flood-opacity="0" result="BackgroundImageFix"/>
<feGaussianBlur in="BackgroundImageFix" stdDeviation="0.792149"/>
<feComposite in2="SourceAlpha" operator="in" result="effect1_backgroundBlur_149_26"/>
<feBlend mode="normal" in="SourceGraphic" in2="effect1_backgroundBlur_149_26" result="shape"/>
</filter>
<filter id="filter1_b_149_26" x="8.70585" y="6.88199" width="21.685" height="23.3709" filterUnits="userSpaceOnUse" color-interpolation-filters="sRGB">
<feFlood flood-opacity="0" result="BackgroundImageFix"/>
<feGaussianBlur in="BackgroundImageFix" stdDeviation="2.47032"/>
<feComposite in2="SourceAlpha" operator="in" result="effect1_backgroundBlur_149_26"/>
<feBlend mode="normal" in="SourceGraphic" in2="effect1_backgroundBlur_149_26" result="shape"/>
</filter>
<linearGradient id="paint0_linear_149_26" x1="6.14925" y1="5.19245" x2="29.1983" y2="33.7392" gradientUnits="userSpaceOnUse">
<stop stop-color="white" stop-opacity="0.25"/>
<stop offset="1" stop-color="white" stop-opacity="0"/>
</linearGradient>
<linearGradient id="paint1_linear_149_26" x1="15.5254" y1="13.3942" x2="24.2996" y2="22.9029" gradientUnits="userSpaceOnUse">
<stop stop-color="white" stop-opacity="0.25"/>
<stop offset="1" stop-color="white" stop-opacity="0"/>
</linearGradient>
</defs>
</svg>
