<svg width="27" height="33" viewBox="0 0 27 33" fill="none" xmlns="http://www.w3.org/2000/svg">
<g filter="url(#filter0_b_149_20)">
<g filter="url(#filter1_b_149_20)">
<path d="M13.2952 15.8408C15.4098 15.8408 17.2409 15.0823 18.7371 13.5859C20.2332 12.0897 20.9917 10.259 20.9917 8.14403C20.9917 6.0298 20.2332 4.19886 18.7368 2.70217C17.2404 1.20622 15.4096 0.447754 13.2952 0.447754C11.1803 0.447754 9.34962 1.20622 7.85347 2.70242C6.35731 4.19862 5.59863 6.02955 5.59863 8.14403C5.59863 10.259 6.35731 12.0899 7.85371 13.5861C9.35011 15.0821 11.181 15.8408 13.2952 15.8408Z" fill="#DADADA" fill-opacity="0.2"/>
<path d="M18.3056 13.1545L18.3056 13.1545C19.6874 11.7726 20.3815 10.0971 20.3815 8.14403C20.3815 6.19177 19.6875 4.51602 18.3055 3.13368C16.9234 1.75203 15.2477 1.05791 13.2952 1.05791C11.3422 1.05791 9.6667 1.75203 8.28492 3.13386C6.9031 4.51572 6.20879 6.1915 6.20879 8.14403C6.20879 10.097 6.9031 11.7728 8.2851 13.1546L18.3056 13.1545ZM18.3056 13.1545C16.9238 14.5365 15.2479 15.2306 13.2952 15.2306M18.3056 13.1545L13.2952 15.2306M13.2952 15.2306C11.343 15.2306 9.66722 14.5363 8.28513 13.1547L13.2952 15.2306Z" stroke="url(#paint0_linear_149_20)" stroke-width="1.22032"/>
</g>
<g filter="url(#filter2_b_149_20)">
<path d="M26.7188 25.0283C26.6756 24.4022 26.5883 23.7192 26.4598 22.9979C26.33 22.2712 26.1629 21.5843 25.9629 20.9564C25.7564 20.3075 25.4754 19.6666 25.1281 19.0525C24.7676 18.415 24.3442 17.86 23.8691 17.4032C23.3723 16.9254 22.764 16.5413 22.0606 16.261C21.3596 15.9823 20.5828 15.8411 19.7519 15.8411C19.4255 15.8411 19.1099 15.9757 18.5004 16.3745C18.1253 16.6204 17.6865 16.9048 17.1968 17.2194C16.778 17.4876 16.2107 17.7389 15.51 17.9664C14.8264 18.1888 14.1322 18.3015 13.4471 18.3015C12.762 18.3015 12.0681 18.1888 11.3838 17.9664C10.6838 17.7391 10.1165 17.4878 9.69819 17.2196C9.21308 16.908 8.77406 16.6236 8.39334 16.3743C7.78457 15.9754 7.46873 15.8408 7.14239 15.8408C6.31119 15.8408 5.53462 15.9823 4.83391 16.2613C4.131 16.541 3.52247 16.9252 3.02517 17.4035C2.5503 17.8605 2.12665 18.4153 1.76666 19.0525C1.41959 19.6666 1.13862 20.3072 0.931799 20.9567C0.732047 21.5845 0.564978 22.2712 0.435224 22.9979C0.306691 23.7182 0.219375 24.4014 0.176206 25.0291C0.133768 25.6439 0.112305 26.2821 0.112305 26.9266C0.112305 28.604 0.642781 29.962 1.68885 30.9635C2.722 31.9518 4.08905 32.4531 5.75145 32.4531H21.1443C22.8067 32.4531 24.1732 31.952 25.2066 30.9635C26.2529 29.9627 26.7834 28.6045 26.7834 26.9264C26.7832 26.2789 26.7615 25.6403 26.7188 25.0283Z" fill="#DADADA" fill-opacity="0.2"/>
<path d="M26.1101 25.0708L26.1101 25.0703C26.0686 24.4694 25.9844 23.8084 25.8591 23.1051C25.7335 22.4017 25.5725 21.741 25.3816 21.1416L25.3815 21.1415C25.1881 20.534 24.9243 19.9317 24.597 19.3528L25.1281 19.0525L24.597 19.3528C24.2623 18.761 23.8741 18.2544 23.4462 17.8431L23.4461 17.843C23.0116 17.4251 22.4721 17.0818 21.8348 16.8279C21.2127 16.5805 20.5134 16.4512 19.7519 16.4512C19.6219 16.4512 19.4404 16.4887 18.8349 16.8848C18.8348 16.8849 18.8347 16.885 18.8346 16.8851L18.5004 16.3745C18.1253 16.6204 17.6865 16.9048 17.1968 17.2194L26.1101 25.0708ZM26.1101 25.0708C26.1517 25.6678 26.173 26.2923 26.1733 26.9264L26.1101 25.0708ZM2.29789 19.3526L2.29786 19.3527C1.9707 19.9316 1.70687 20.5337 1.51324 21.1416L2.29789 19.3526ZM2.29789 19.3526C2.63185 18.7615 3.02025 18.2551 3.44814 17.8433L2.29789 19.3526ZM0.784926 25.0709L0.784916 25.0711C0.743488 25.6713 0.722463 26.2955 0.722463 26.9266C0.722463 28.4661 1.20411 29.6546 2.11062 30.5226L0.784926 25.0709ZM0.784926 25.0709C0.826359 24.4686 0.910576 23.8074 1.03588 23.1051L0.784926 25.0709ZM24.7849 30.5226L24.7849 30.5226C25.6914 29.6555 26.1732 28.467 26.1733 26.9266L24.7849 30.5226ZM24.7849 30.5226C23.8834 31.3849 22.6769 31.843 21.1443 31.843H5.75145C4.21889 31.843 3.01202 31.3847 2.11081 30.5228L24.7849 30.5226ZM13.4471 18.9117C14.1993 18.9117 14.957 18.7879 15.6984 18.5467L3.44826 17.8431C3.88329 17.4248 4.42288 17.0815 5.05952 16.8282L5.05961 16.8282C5.68154 16.5805 6.3806 16.451 7.14239 16.451C7.27231 16.451 7.45427 16.4885 8.05894 16.8847L8.05906 16.8847C8.44163 17.1353 8.8822 17.4207 9.36843 17.733L9.36884 17.7333C9.84662 18.0396 10.4671 18.3103 11.1952 18.5467C11.9373 18.7878 12.6948 18.9117 13.4471 18.9117ZM1.03589 23.1051C1.16149 22.4017 1.32246 21.7413 1.51319 21.1418L1.03589 23.1051Z" stroke="url(#paint1_linear_149_20)" stroke-width="1.22032"/>
</g>
</g>
<defs>
<filter id="filter0_b_149_20" x="-5.75742" y="-5.42197" width="38.4104" height="43.7448" filterUnits="userSpaceOnUse" color-interpolation-filters="sRGB">
<feFlood flood-opacity="0" result="BackgroundImageFix"/>
<feGaussianBlur in="BackgroundImageFix" stdDeviation="2.93486"/>
<feComposite in2="SourceAlpha" operator="in" result="effect1_backgroundBlur_149_20"/>
<feBlend mode="normal" in="SourceGraphic" in2="effect1_backgroundBlur_149_20" result="shape"/>
</filter>
<filter id="filter1_b_149_20" x="-0.271093" y="-5.42197" width="27.132" height="27.1325" filterUnits="userSpaceOnUse" color-interpolation-filters="sRGB">
<feFlood flood-opacity="0" result="BackgroundImageFix"/>
<feGaussianBlur in="BackgroundImageFix" stdDeviation="2.93486"/>
<feComposite in2="SourceAlpha" operator="in" result="effect1_backgroundBlur_149_20"/>
<feBlend mode="normal" in="SourceGraphic" in2="effect1_backgroundBlur_149_20" result="shape"/>
</filter>
<filter id="filter2_b_149_20" x="-5.75742" y="9.97109" width="38.4104" height="28.3518" filterUnits="userSpaceOnUse" color-interpolation-filters="sRGB">
<feFlood flood-opacity="0" result="BackgroundImageFix"/>
<feGaussianBlur in="BackgroundImageFix" stdDeviation="2.93486"/>
<feComposite in2="SourceAlpha" operator="in" result="effect1_backgroundBlur_149_20"/>
<feBlend mode="normal" in="SourceGraphic" in2="effect1_backgroundBlur_149_20" result="shape"/>
</filter>
<linearGradient id="paint0_linear_149_20" x1="8.04895" y1="2.24106" x2="17.8681" y2="14.4023" gradientUnits="userSpaceOnUse">
<stop stop-color="white" stop-opacity="0.25"/>
<stop offset="1" stop-color="white" stop-opacity="0"/>
</linearGradient>
<linearGradient id="paint1_linear_149_20" x1="4.35791" y1="17.7762" x2="13.0602" y2="35.0803" gradientUnits="userSpaceOnUse">
<stop stop-color="white" stop-opacity="0.25"/>
<stop offset="1" stop-color="white" stop-opacity="0"/>
</linearGradient>
</defs>
</svg>
